<svg width="1459" height="1459" viewBox="0 0 1459 1459" fill="none" xmlns="http://www.w3.org/2000/svg">
<rect width="1459" height="1459" fill="url(#paint0_linear_325_3610)"/>
<rect x="376.908" y="340.432" width="705.183" height="772.344" rx="52.6598" fill="#F5F5F5"/>
<path d="M410.488 417.868C410.488 393.632 430.135 373.984 454.371 373.984H1004.63C1028.86 373.984 1048.51 393.632 1048.51 417.868V941.395C1048.51 943.301 1046.97 944.847 1045.06 944.847H413.941C412.034 944.847 410.488 943.301 410.488 941.395V417.868Z" fill="#202020"/>
<path d="M758.834 808.604C673.435 808.604 603.973 741.993 603.973 659.445C603.973 577.306 673.435 510.695 758.834 510.695C814.404 510.695 845.049 540.118 845.049 571.176V574.445C845.049 575.263 844.641 575.671 844.232 576.489C843.415 576.897 843.006 577.306 842.189 576.897C815.63 575.671 808.275 585.07 805.823 580.984C804.597 578.941 807.866 579.349 812.769 571.176C825.028 551.561 795.608 516.008 743.307 519.686C685.694 523.364 645.242 585.07 653.822 662.715C659.134 710.936 675.07 748.123 711.844 777.546C755.565 811.873 810.726 795.936 840.555 778.772C840.963 778.364 841.78 778.364 842.598 778.772C843.415 778.772 844.232 779.59 844.232 780.407L844.641 780.816C845.049 782.042 844.641 783.676 843.415 784.493C818.081 800.022 788.662 808.604 758.834 808.604Z" fill="#F5F5F5"/>
<defs>
<linearGradient id="paint0_linear_325_3610" x1="12.1583" y1="-4.0764e-06" x2="1471.16" y2="1459" gradientUnits="userSpaceOnUse">
<stop stop-color="#E4B632"/>
<stop offset="1" stop-color="#F584BA"/>
</linearGradient>
</defs>
</svg>
